<?xml version="1.0" encoding="UTF-8"?>
<svg id="Layer_1" data-name="Layer 1" xmlns="http://www.w3.org/2000/svg" xmlns:xlink="http://www.w3.org/1999/xlink" viewBox="0 0 790.08 790.08">
  <defs>
    <style>
      .cls-1 {
        fill: url(#linear-gradient-2);
      }

      .cls-2 {
        fill: none;
      }

      .cls-3 {
        fill: url(#linear-gradient-4);
      }

      .cls-4 {
        fill: url(#linear-gradient-3);
      }

      .cls-5 {
        fill: url(#linear-gradient);
      }
    </style>
    <linearGradient id="linear-gradient" x1="378.13" y1="627.49" x2="378.13" y2="227.49" gradientTransform="translate(962.03 343.45) rotate(-138.06) scale(1 -1)" gradientUnits="userSpaceOnUse">
      <stop offset="0" stop-color="#00513a"/>
      <stop offset="1" stop-color="#62f9d5"/>
    </linearGradient>
    <linearGradient id="linear-gradient-2" x1="397.12" y1="116.75" x2="392.96" y2="646.74" gradientTransform="translate(0 792.08) scale(1 -1)" gradientUnits="userSpaceOnUse">
      <stop offset="0" stop-color="#00513a"/>
      <stop offset="1" stop-color="#62f9d5"/>
    </linearGradient>
    <linearGradient id="linear-gradient-3" x1="397.27" y1="728.87" x2="397.27" y2="68.87" gradientTransform="translate(121.82 -97.65) rotate(106.18) scale(1 -1)" gradientUnits="userSpaceOnUse">
      <stop offset="0" stop-color="#00513a"/>
      <stop offset="1" stop-color="#62f9d5"/>
    </linearGradient>
    <linearGradient id="linear-gradient-4" x1="395.53" y1="2.04" x2="394.55" y2="792.04" gradientTransform="translate(459.72 951.38) rotate(-51.49) scale(1 -1)" gradientUnits="userSpaceOnUse">
      <stop offset="0" stop-color="#00513a"/>
      <stop offset="1" stop-color="#62f9d5"/>
    </linearGradient>
  </defs>
  <path class="cls-2" d="M518.9,642.52c82.74-44.36,139.14-131.69,139.14-231.95,0-145.02-117.98-263-263-263s-263,117.98-263,263c0,100.26,56.4,187.59,139.14,231.95"/>
  <path class="cls-2" d="M271.18,573.5c-46.35-36.66-76.14-93.37-76.14-156.92,0-110.28,89.72-200,200-200s200,89.72,200,200c0,63.54-29.79,120.26-76.14,156.92"/>
  <path class="cls-5" d="M246.28,275.02c-73.71,82.03-66.94,208.73,15.09,282.44s208.73,66.94,282.44-15.09c42.47-47.27,58.22-109.36,48.25-167.61l-1.72,1.91c9.32,57.21-6.35,117.99-48.02,164.36-72.97,81.21-198.41,87.91-279.62,14.94-81.21-72.97-87.91-198.41-14.94-279.62,41.67-46.37,100.44-68.43,158.31-65.26l1.72-1.91c-58.98-3.71-119.04,18.57-161.51,65.83Z"/>
  <path class="cls-1" d="M660.04,410.34c0-70.78-27.56-137.33-77.62-187.38s-116.6-77.62-187.38-77.62-137.33,27.56-187.38,77.62-77.62,116.6-77.62,187.38,27.56,137.33,77.62,187.38c19.02,19.02,40.42,34.78,63.52,47.02v-2.46c-82.74-44.36-139.14-131.69-139.14-231.95,0-145.02,117.98-263,263-263s263,117.98,263,263c0,100.26-56.4,187.59-139.14,231.95v2.46c23.11-12.25,44.51-28.01,63.52-47.02,50.05-50.05,77.62-116.6,77.62-187.38Z"/>
  <path class="cls-4" d="M302.22,711.97c84.65,24.56,173.81,14.69,251.04-27.8,77.23-42.49,133.29-112.51,157.85-197.17,24.56-84.65,14.69-173.81-27.8-251.04-42.49-77.23-112.51-133.29-197.17-157.85-84.65-24.56-173.81-14.69-251.04,27.8-39.42,21.69-73.31,50.57-100.33,84.89l2.26.65c80.37-101.25,216.93-149.62,348.55-111.42,173.7,50.4,274,232.71,223.6,406.41-50.4,173.7-232.71,274-406.41,223.6-131.62-38.19-221.08-152.14-234.78-280.68l-2.26-.65c4.45,43.45,17.62,85.98,39.31,125.41,42.49,77.23,112.51,133.29,197.17,157.85Z"/>
  <path class="cls-3" d="M501.37,14.52C452.18.79,401.39-3.23,350.41,2.57c-50.97,5.8-99.56,21.11-144.42,45.53-46.44,25.28-86.82,59.25-120.03,100.98-33.2,41.72-57.24,88.7-71.45,139.64C.79,337.91-3.23,388.69,2.57,439.67c5.8,50.97,21.12,99.56,45.53,144.42,25.28,46.44,59.25,86.82,100.98,120.03s88.7,57.24,139.64,71.45c49.19,13.72,99.98,17.74,150.95,11.94,50.97-5.8,99.56-21.12,144.42-45.53,9.39-5.11,18.52-10.58,27.4-16.39l-1.72-1.37c-137.95,89.84-323.74,86.33-459.45-21.67C-19.24,567.61-47.41,319.88,87.53,150.32,222.47-19.24,470.2-47.41,639.76,87.53c135.71,108,180.84,288.25,124.27,442.85l1.72,1.37c3.67-9.96,6.95-20.09,9.82-30.38,13.72-49.19,17.74-99.98,11.95-150.95-5.8-50.97-21.11-99.56-45.53-144.42-25.28-46.44-59.25-86.82-100.98-120.03-41.72-33.2-88.7-57.24-139.64-71.45Z"/>
</svg>