<svg width="2839" height="294" viewBox="0 0 2839 294" fill="none" xmlns="http://www.w3.org/2000/svg">
<path d="M67.342 168.061C55.2021 168.061 44.7229 165.885 35.9043 161.533C27.2002 157.067 20.5004 150.94 15.8048 143.152C11.1091 135.249 8.76134 126.145 8.76134 115.837C8.76134 105.53 10.5365 96.0238 14.0869 87.3198C17.6372 78.5012 22.6764 70.8851 29.2045 64.4716C35.847 57.9435 43.6922 52.8471 52.7398 49.1822C61.902 45.5173 72.0377 43.6849 83.1468 43.6849C95.2867 43.6849 105.709 45.9182 114.413 50.3847C123.231 54.7368 129.988 60.864 134.684 68.7663C139.38 76.5542 141.727 85.6019 141.727 95.9093C141.727 106.217 139.952 115.78 136.402 124.598C132.852 133.302 127.755 140.919 121.113 147.447C114.585 153.86 106.739 158.899 97.5772 162.564C88.5296 166.229 78.4512 168.061 67.342 168.061ZM69.7471 144.354C76.5042 144.354 82.5742 143.152 87.9569 140.747C93.4542 138.227 98.0926 134.791 101.872 130.439C105.651 126.087 108.515 121.105 110.462 115.493C112.523 109.767 113.554 103.754 113.554 97.4554C113.554 91.5 112.294 86.289 109.774 81.8225C107.255 77.2414 103.533 73.691 98.608 71.1714C93.7978 68.6518 87.8424 67.392 80.7417 67.392C73.9846 67.392 67.9147 68.6518 62.5319 71.1714C57.1491 73.5765 52.5108 76.955 48.6168 81.3071C44.8374 85.6591 41.917 90.6983 39.8555 96.4247C37.9085 102.037 36.935 107.992 36.935 114.291C36.935 120.246 38.1948 125.515 40.7144 130.096C43.3486 134.562 47.0707 138.055 51.8809 140.575C56.8055 143.095 62.7609 144.354 69.7471 144.354ZM182.777 166L260.427 45.7464H288.085L317.633 166H289.803L266.44 59.4896H277.434L212.497 166H182.777ZM214.902 140.231L226.241 119.101H288.257L291.521 140.231H214.902ZM330.11 166L354.16 45.7464H382.162L362.578 143.324H422.877L418.238 166H330.11ZM494.994 168.061C482.854 168.061 472.318 165.885 463.384 161.533C454.566 157.067 447.694 150.94 442.77 143.152C437.959 135.249 435.554 126.145 435.554 115.837C435.554 105.644 437.33 96.1384 440.88 87.3198C444.545 78.5012 449.698 70.8851 456.341 64.4716C462.984 57.9435 470.943 52.8471 480.22 49.1822C489.497 45.5173 499.804 43.6849 511.142 43.6849C522.595 43.6849 532.502 45.5173 540.862 49.1822C549.337 52.7325 556.152 57.8863 561.305 64.6434L541.378 80.7917C537.369 75.9816 532.788 72.5457 527.634 70.4843C522.595 68.4228 516.697 67.392 509.94 67.392C502.839 67.392 496.426 68.5946 490.699 70.9996C485.087 73.2902 480.277 76.5542 476.269 80.7917C472.26 85.0292 469.168 90.0112 466.992 95.7375C464.816 101.349 463.728 107.477 463.728 114.119C463.728 120.189 465.045 125.515 467.679 130.096C470.313 134.562 474.207 138.055 479.361 140.575C484.629 143.095 491.043 144.354 498.602 144.354C504.328 144.354 509.825 143.381 515.094 141.434C520.362 139.487 525.458 136.452 530.383 132.329L541.034 153.459C534.964 158.155 527.921 161.762 519.904 164.282C512.001 166.802 503.698 168.061 494.994 168.061ZM516.64 149.164L525.573 103.983H550.998L541.034 153.459L516.64 149.164ZM626.669 168.061C614.529 168.061 604.05 165.885 595.231 161.533C586.527 157.067 579.827 150.94 575.132 143.152C570.436 135.249 568.088 126.145 568.088 115.837C568.088 105.53 569.864 96.0238 573.414 87.3198C576.964 78.5012 582.003 70.8851 588.531 64.4716C595.174 57.9435 603.019 52.8471 612.067 49.1822C621.229 45.5173 631.365 43.6849 642.474 43.6849C654.614 43.6849 665.036 45.9182 673.74 50.3847C682.558 54.7368 689.315 60.864 694.011 68.7663C698.707 76.5542 701.055 85.6019 701.055 95.9093C701.055 106.217 699.279 115.78 695.729 124.598C692.179 133.302 687.082 140.919 680.44 147.447C673.912 153.86 666.066 158.899 656.904 162.564C647.857 166.229 637.778 168.061 626.669 168.061ZM629.074 144.354C635.831 144.354 641.901 143.152 647.284 140.747C652.781 138.227 657.42 134.791 661.199 130.439C664.978 126.087 667.842 121.105 669.789 115.493C671.85 109.767 672.881 103.754 672.881 97.4554C672.881 91.5 671.621 86.289 669.101 81.8225C666.582 77.2414 662.86 73.691 657.935 71.1714C653.125 68.6518 647.169 67.392 640.069 67.392C633.312 67.392 627.242 68.6518 621.859 71.1714C616.476 73.5765 611.838 76.955 607.944 81.3071C604.164 85.6591 601.244 90.6983 599.183 96.4247C597.236 102.037 596.262 107.992 596.262 114.291C596.262 120.246 597.522 125.515 600.041 130.096C602.676 134.562 606.398 138.055 611.208 140.575C616.133 143.095 622.088 144.354 629.074 144.354ZM709.258 166L733.308 45.7464H782.269C797.272 45.7464 808.839 49.0104 816.97 55.5385C825.216 62.0665 829.339 71.2287 829.339 83.025C829.339 93.1034 826.934 101.865 822.124 109.309C817.429 116.639 810.671 122.308 801.853 126.316C793.149 130.325 782.841 132.329 770.93 132.329H731.762L746.364 120.132L737.259 166H709.258ZM786.563 166L761.997 122.365H791.202L815.94 166H786.563ZM745.677 123.396L736.057 110.168H771.961C781.238 110.168 788.396 108.106 793.435 103.983C798.589 99.746 801.166 93.6188 801.166 85.6019C801.166 79.761 799.161 75.4662 795.153 72.7175C791.259 69.8544 785.762 68.4228 778.661 68.4228H744.818L759.42 54.8513L745.677 123.396ZM835.584 166L859.635 45.7464H887.637L863.586 166H835.584ZM859.635 35.9543L885.404 11.2164H914.952L881.281 35.9543H859.635ZM916.863 166L936.275 68.4228H897.794L902.432 45.7464H1007.22L1002.59 68.4228H964.277L944.693 166H916.863ZM998.148 166L1022.2 45.7464H1044.88L1079.06 130.955L1067.04 130.783L1133.69 45.7464H1157.57L1133.69 166H1107.58L1123.56 85.4301H1128.88L1075.8 153.287H1063.43L1035.08 85.2583L1040.24 85.7737L1024.26 166H998.148ZM1224.58 168.061C1212.44 168.061 1201.96 165.885 1193.14 161.533C1184.44 157.067 1177.74 150.94 1173.04 143.152C1168.35 135.249 1166 126.145 1166 115.837C1166 105.53 1167.78 96.0238 1171.33 87.3198C1174.88 78.5012 1179.92 70.8851 1186.44 64.4716C1193.09 57.9435 1200.93 52.8471 1209.98 49.1822C1219.14 45.5173 1229.28 43.6849 1240.39 43.6849C1252.53 43.6849 1262.95 45.9182 1271.65 50.3847C1280.47 54.7368 1287.23 60.864 1291.92 68.7663C1296.62 76.5542 1298.97 85.6019 1298.97 95.9093C1298.97 106.217 1297.19 115.78 1293.64 124.598C1290.09 133.302 1285 140.919 1278.35 147.447C1271.82 153.86 1263.98 158.899 1254.82 162.564C1245.77 166.229 1235.69 168.061 1224.58 168.061ZM1226.99 144.354C1233.74 144.354 1239.81 143.152 1245.2 140.747C1250.69 138.227 1255.33 134.791 1259.11 130.439C1262.89 126.087 1265.75 121.105 1267.7 115.493C1269.76 109.767 1270.79 103.754 1270.79 97.4554C1270.79 91.5 1269.53 86.289 1267.01 81.8225C1264.49 77.2414 1260.77 73.691 1255.85 71.1714C1251.04 68.6518 1245.08 67.392 1237.98 67.392C1231.22 67.392 1225.15 68.6518 1219.77 71.1714C1214.39 73.5765 1209.75 76.955 1205.86 81.3071C1202.08 85.6591 1199.16 90.6983 1197.1 96.4247C1195.15 102.037 1194.17 107.992 1194.17 114.291C1194.17 120.246 1195.43 125.515 1197.95 130.096C1200.59 134.562 1204.31 138.055 1209.12 140.575C1214.05 143.095 1220 144.354 1226.99 144.354ZM1355.82 166L1379.87 45.7464H1430.21C1442.58 45.7464 1453.17 47.8079 1461.99 51.9308C1470.92 55.9393 1477.74 61.7229 1482.43 69.2817C1487.13 76.726 1489.48 85.6019 1489.48 95.9093C1489.48 106.56 1487.64 116.181 1483.98 124.77C1480.43 133.36 1475.33 140.747 1468.69 146.931C1462.05 153.001 1454.14 157.697 1444.98 161.018C1435.82 164.339 1425.68 166 1414.57 166H1355.82ZM1388.29 143.152H1415.43C1425.17 143.152 1433.41 141.148 1440.17 137.139C1447.04 133.131 1452.25 127.691 1455.8 120.819C1459.47 113.947 1461.3 106.16 1461.3 97.4554C1461.3 91.5 1460.04 86.4035 1457.52 82.166C1455 77.814 1451.17 74.4927 1446.01 72.2022C1440.97 69.7971 1434.67 68.5946 1427.12 68.5946H1403.24L1388.29 143.152ZM1560.11 168.061C1547.97 168.061 1537.49 165.885 1528.67 161.533C1519.97 157.067 1513.27 150.94 1508.57 143.152C1503.88 135.249 1501.53 126.145 1501.53 115.837C1501.53 105.53 1503.31 96.0238 1506.86 87.3198C1510.41 78.5012 1515.45 70.8851 1521.97 64.4716C1528.62 57.9435 1536.46 52.8471 1545.51 49.1822C1554.67 45.5173 1564.81 43.6849 1575.92 43.6849C1588.06 43.6849 1598.48 45.9182 1607.18 50.3847C1616 54.7368 1622.76 60.864 1627.45 68.7663C1632.15 76.5542 1634.5 85.6019 1634.5 95.9093C1634.5 106.217 1632.72 115.78 1629.17 124.598C1625.62 133.302 1620.52 140.919 1613.88 147.447C1607.35 153.86 1599.51 158.899 1590.35 162.564C1581.3 166.229 1571.22 168.061 1560.11 168.061ZM1562.52 144.354C1569.27 144.354 1575.34 143.152 1580.73 140.747C1586.22 138.227 1590.86 134.791 1594.64 130.439C1598.42 126.087 1601.28 121.105 1603.23 115.493C1605.29 109.767 1606.32 103.754 1606.32 97.4554C1606.32 91.5 1605.06 86.289 1602.54 81.8225C1600.02 77.2414 1596.3 73.691 1591.38 71.1714C1586.57 68.6518 1580.61 67.392 1573.51 67.392C1566.75 67.392 1560.68 68.6518 1555.3 71.1714C1549.92 73.5765 1545.28 76.955 1541.39 81.3071C1537.61 85.6591 1534.69 90.6983 1532.62 96.4247C1530.68 102.037 1529.7 107.992 1529.7 114.291C1529.7 120.246 1530.96 125.515 1533.48 130.096C1536.12 134.562 1539.84 138.055 1544.65 140.575C1549.57 143.095 1555.53 144.354 1562.52 144.354ZM1691.35 166L1715.4 45.7464H1743.4L1719.35 166H1691.35ZM1747.72 166L1771.77 45.7464H1794.79L1846.5 132.844L1837.39 132.329L1854.57 45.7464H1882.06L1858.01 166H1835.16L1783.28 78.902L1792.56 79.4174L1775.21 166H1747.72ZM1922.03 166L1894.2 45.7464H1922.89L1947.12 152.429H1929.08L1996.76 45.7464H2025.62L1949.52 166H1922.03ZM2051.64 94.1914H2109.53L2105.24 115.837H2047.35L2051.64 94.1914ZM2043.74 143.667H2109.36L2104.72 166H2011.61L2035.66 45.7464H2126.54L2121.9 68.0792H2058.86L2043.74 143.667ZM2168.78 168.061C2162.26 168.061 2155.9 167.432 2149.72 166.172C2143.65 165.027 2138.09 163.423 2133.05 161.362C2128.13 159.3 2123.95 157.067 2120.51 154.662L2131.85 133.188C2135.63 135.822 2139.64 138.113 2143.88 140.06C2148.23 141.892 2152.75 143.324 2157.45 144.354C2162.14 145.271 2166.84 145.729 2171.53 145.729C2176.69 145.729 2181.1 145.156 2184.76 144.011C2188.54 142.865 2191.4 141.262 2193.35 139.201C2195.41 137.139 2196.44 134.62 2196.44 131.642C2196.44 128.893 2195.36 126.66 2193.18 124.942C2191 123.224 2188.14 121.792 2184.59 120.647C2181.15 119.387 2177.32 118.185 2173.08 117.04C2168.84 115.894 2164.55 114.577 2160.2 113.088C2155.96 111.485 2152.06 109.538 2148.51 107.248C2145.08 104.842 2142.27 101.807 2140.1 98.1426C2137.92 94.4777 2136.83 89.8966 2136.83 84.3993C2136.83 76.1534 2139.07 68.9954 2143.53 62.9255C2148.11 56.8555 2154.53 52.1599 2162.77 48.8386C2171.02 45.4028 2180.7 43.6849 2191.8 43.6849C2199.94 43.6849 2207.61 44.6011 2214.82 46.4335C2222.04 48.1514 2228.22 50.671 2233.38 53.9923L2222.9 75.2944C2218.32 72.2022 2213.22 69.9116 2207.61 68.4228C2202 66.8194 2196.21 66.0177 2190.26 66.0177C2184.88 66.0177 2180.24 66.6476 2176.34 67.9074C2172.56 69.1672 2169.64 70.9424 2167.58 73.2329C2165.64 75.4089 2164.66 77.9285 2164.66 80.7917C2164.66 83.6549 2165.69 86.0027 2167.75 87.8351C2169.93 89.553 2172.79 91.0419 2176.34 92.3017C2179.89 93.447 2183.79 94.5922 2188.03 95.7375C2192.26 96.8828 2196.5 98.1999 2200.74 99.6887C2204.98 101.178 2208.87 103.067 2212.42 105.358C2215.97 107.648 2218.83 110.569 2221.01 114.119C2223.19 117.555 2224.27 121.907 2224.27 127.175C2224.27 135.421 2221.98 142.636 2217.4 148.821C2212.82 154.891 2206.35 159.644 2197.99 163.08C2189.74 166.401 2180.01 168.061 2168.78 168.061ZM2259.65 166L2279.06 68.4228H2240.58L2245.22 45.7464H2350.01L2345.37 68.4228H2307.06L2287.48 166H2259.65ZM2340.94 166L2364.99 45.7464H2392.99L2368.94 166H2340.94ZM2397.3 166L2421.36 45.7464H2471.69C2484.06 45.7464 2494.65 47.8079 2503.47 51.9308C2512.4 55.9393 2519.22 61.7229 2523.91 69.2817C2528.61 76.726 2530.96 85.6019 2530.96 95.9093C2530.96 106.56 2529.13 116.181 2525.46 124.77C2521.91 133.36 2516.81 140.747 2510.17 146.931C2503.53 153.001 2495.63 157.697 2486.46 161.018C2477.3 164.339 2467.17 166 2456.06 166H2397.3ZM2429.77 143.152H2456.92C2466.65 143.152 2474.9 141.148 2481.65 137.139C2488.53 133.131 2493.74 127.691 2497.29 120.819C2500.95 113.947 2502.78 106.16 2502.78 97.4554C2502.78 91.5 2501.52 86.4035 2499 82.166C2496.49 77.814 2492.65 74.4927 2487.49 72.2022C2482.46 69.7971 2476.16 68.5946 2468.6 68.5946H2444.72L2429.77 143.152ZM2601.59 168.061C2589.45 168.061 2578.97 165.885 2570.16 161.533C2561.45 157.067 2554.75 150.94 2550.06 143.152C2545.36 135.249 2543.01 126.145 2543.01 115.837C2543.01 105.53 2544.79 96.0238 2548.34 87.3198C2551.89 78.5012 2556.93 70.8851 2563.46 64.4716C2570.1 57.9435 2577.94 52.8471 2586.99 49.1822C2596.15 45.5173 2606.29 43.6849 2617.4 43.6849C2629.54 43.6849 2639.96 45.9182 2648.66 50.3847C2657.48 54.7368 2664.24 60.864 2668.94 68.7663C2673.63 76.5542 2675.98 85.6019 2675.98 95.9093C2675.98 106.217 2674.2 115.78 2670.65 124.598C2667.1 133.302 2662.01 140.919 2655.36 147.447C2648.84 153.86 2640.99 158.899 2631.83 162.564C2622.78 166.229 2612.7 168.061 2601.59 168.061ZM2604 144.354C2610.76 144.354 2616.83 143.152 2622.21 140.747C2627.71 138.227 2632.34 134.791 2636.12 130.439C2639.9 126.087 2642.77 121.105 2644.71 115.493C2646.77 109.767 2647.81 103.754 2647.81 97.4554C2647.81 91.5 2646.55 86.289 2644.03 81.8225C2641.51 77.2414 2637.78 73.691 2632.86 71.1714C2628.05 68.6518 2622.09 67.392 2614.99 67.392C2608.24 67.392 2602.17 68.6518 2596.78 71.1714C2591.4 73.5765 2586.76 76.955 2582.87 81.3071C2579.09 85.6591 2576.17 90.6983 2574.11 96.4247C2572.16 102.037 2571.19 107.992 2571.19 114.291C2571.19 120.246 2572.45 125.515 2574.97 130.096C2577.6 134.562 2581.32 138.055 2586.13 140.575C2591.06 143.095 2597.01 144.354 2604 144.354ZM2684.18 166L2708.23 45.7464H2757.19C2772.2 45.7464 2783.76 49.0104 2791.89 55.5385C2800.14 62.0665 2804.26 71.2287 2804.26 83.025C2804.26 93.1034 2801.86 101.865 2797.05 109.309C2792.35 116.639 2785.6 122.308 2776.78 126.316C2768.07 130.325 2757.77 132.329 2745.85 132.329H2706.69L2721.29 120.132L2712.18 166H2684.18ZM2761.49 166L2736.92 122.365H2766.13L2790.86 166H2761.49ZM2720.6 123.396L2710.98 110.168H2746.89C2756.16 110.168 2763.32 108.106 2768.36 103.983C2773.51 99.746 2776.09 93.6188 2776.09 85.6019C2776.09 79.761 2774.09 75.4662 2770.08 72.7175C2766.18 69.8544 2760.69 68.4228 2753.59 68.4228H2719.74L2734.34 54.8513L2720.6 123.396Z" fill="url(#paint0_linear_14_3)"/>
<path d="M10.59 277V272.24L30.54 252.99C32.3133 251.31 33.62 249.84 34.46 248.58C35.3467 247.273 35.93 246.083 36.21 245.01C36.5367 243.89 36.7 242.817 36.7 241.79C36.7 239.27 35.8133 237.287 34.04 235.84C32.2667 234.393 29.6767 233.67 26.27 233.67C23.6567 233.67 21.3 234.113 19.2 235C17.1 235.84 15.28 237.17 13.74 238.99L8.98 234.86C10.8467 232.48 13.3433 230.66 16.47 229.4C19.6433 228.093 23.12 227.44 26.9 227.44C30.3067 227.44 33.27 228 35.79 229.12C38.31 230.193 40.2467 231.757 41.6 233.81C43 235.863 43.7 238.29 43.7 241.09C43.7 242.677 43.49 244.24 43.07 245.78C42.65 247.32 41.8567 248.953 40.69 250.68C39.5233 252.407 37.8433 254.343 35.65 256.49L17.87 273.64L16.19 270.91H45.8V277H10.59ZM103.775 277.56C100.322 277.56 96.962 277.023 93.6953 275.95C90.4753 274.877 87.8386 273.43 85.7853 271.61L89.0053 266.08C90.6386 267.62 92.762 268.88 95.3753 269.86C97.9886 270.84 100.765 271.33 103.705 271.33C107.439 271.33 110.309 270.537 112.315 268.95C114.322 267.363 115.325 265.24 115.325 262.58C115.325 260.76 114.882 259.173 113.995 257.82C113.109 256.467 111.569 255.44 109.375 254.74C107.229 253.993 104.265 253.62 100.485 253.62H89.3553L91.9453 228H119.595V234.09H94.5353L98.1753 230.66L96.1453 250.89L92.5053 247.53H101.955C106.855 247.53 110.799 248.16 113.785 249.42C116.772 250.68 118.942 252.43 120.295 254.67C121.649 256.863 122.325 259.407 122.325 262.3C122.325 265.1 121.649 267.667 120.295 270C118.942 272.287 116.889 274.13 114.135 275.53C111.429 276.883 107.975 277.56 103.775 277.56ZM161.28 277L181.65 249.21V254.6L162.4 228H170.38L185.64 248.93L182.49 249L197.68 228H205.31L186.2 254.18V249.14L206.57 277H198.52L182.28 254.67H185.36L169.33 277H161.28ZM306.419 277V228H312.159L334.139 265.03H331.059L352.759 228H358.499L358.569 277H351.849L351.779 238.57H353.389L334.069 271.05H330.849L311.389 238.57H313.139V277H306.419ZM402.254 277L424.444 228H431.374L453.634 277H446.284L426.474 231.92H429.274L409.464 277H402.254ZM411.704 264.75L413.594 259.15H441.174L443.204 264.75H411.704ZM497.344 277V228H504.344V277H497.344ZM569.694 277.56C565.96 277.56 562.39 277 558.984 275.88C555.577 274.713 552.894 273.22 550.934 271.4L553.524 265.94C555.39 267.573 557.77 268.927 560.664 270C563.557 271.073 566.567 271.61 569.694 271.61C572.54 271.61 574.85 271.283 576.624 270.63C578.397 269.977 579.704 269.09 580.544 267.97C581.384 266.803 581.804 265.497 581.804 264.05C581.804 262.37 581.244 261.017 580.124 259.99C579.05 258.963 577.627 258.147 575.854 257.54C574.127 256.887 572.214 256.327 570.114 255.86C568.014 255.393 565.89 254.857 563.744 254.25C561.644 253.597 559.707 252.78 557.934 251.8C556.207 250.82 554.807 249.513 553.734 247.88C552.66 246.2 552.124 244.053 552.124 241.44C552.124 238.92 552.777 236.61 554.084 234.51C555.437 232.363 557.49 230.66 560.244 229.4C563.044 228.093 566.59 227.44 570.884 227.44C573.73 227.44 576.554 227.813 579.354 228.56C582.154 229.307 584.58 230.38 586.634 231.78L584.324 237.38C582.224 235.98 580.007 234.977 577.674 234.37C575.34 233.717 573.077 233.39 570.884 233.39C568.13 233.39 565.867 233.74 564.094 234.44C562.32 235.14 561.014 236.073 560.174 237.24C559.38 238.407 558.984 239.713 558.984 241.16C558.984 242.887 559.52 244.263 560.594 245.29C561.714 246.317 563.137 247.133 564.864 247.74C566.637 248.347 568.574 248.907 570.674 249.42C572.774 249.887 574.874 250.423 576.974 251.03C579.12 251.637 581.057 252.43 582.784 253.41C584.557 254.39 585.98 255.697 587.054 257.33C588.127 258.963 588.664 261.063 588.664 263.63C588.664 266.103 587.987 268.413 586.634 270.56C585.28 272.66 583.18 274.363 580.334 275.67C577.534 276.93 573.987 277.56 569.694 277.56ZM690.489 277V228H709.599C713.892 228 717.556 228.677 720.589 230.03C723.622 231.383 725.956 233.343 727.589 235.91C729.222 238.477 730.039 241.533 730.039 245.08C730.039 248.627 729.222 251.683 727.589 254.25C725.956 256.77 723.622 258.707 720.589 260.06C717.556 261.413 713.892 262.09 709.599 262.09H694.339L697.489 258.87V277H690.489ZM723.249 277L710.789 259.22H718.279L730.879 277H723.249ZM697.489 259.57L694.339 256.14H709.389C713.869 256.14 717.252 255.183 719.539 253.27C721.872 251.31 723.039 248.58 723.039 245.08C723.039 241.58 721.872 238.873 719.539 236.96C717.252 235.047 713.869 234.09 709.389 234.09H694.339L697.489 230.59V259.57ZM784.118 249.14H809.318V255.09H784.118V249.14ZM784.748 270.91H813.308V277H777.748V228H812.328V234.09H784.748V270.91ZM861.043 277V228H866.783L899.193 268.25H896.183V228H903.183V277H897.443L865.033 236.75H868.043V277H861.043ZM963.98 277V234.09H947.18V228H987.71V234.09H970.91V277H963.98ZM1021.85 277L1044.04 228H1050.97L1073.23 277H1065.88L1046.07 231.92H1048.87L1029.06 277H1021.85ZM1031.3 264.75L1033.19 259.15H1060.77L1062.8 264.75H1031.3ZM1042.29 224.01L1051.81 214.91H1060.35L1048.59 224.01H1042.29ZM1128.48 277L1106.92 228H1114.48L1134.29 273.22H1129.95L1149.9 228H1156.9L1135.41 277H1128.48ZM1205.92 249.14H1231.12V255.09H1205.92V249.14ZM1206.55 270.91H1235.11V277H1199.55V228H1234.13V234.09H1206.55V270.91ZM1282.85 277V228H1289.85V270.91H1316.38V277H1282.85ZM1359.29 287.36L1362.79 273.22L1363.7 277.28C1362.35 277.28 1361.2 276.86 1360.27 276.02C1359.38 275.18 1358.94 274.037 1358.94 272.59C1358.94 271.19 1359.38 270.047 1360.27 269.16C1361.2 268.273 1362.32 267.83 1363.63 267.83C1364.98 267.83 1366.08 268.297 1366.92 269.23C1367.76 270.117 1368.18 271.237 1368.18 272.59C1368.18 273.057 1368.13 273.523 1368.04 273.99C1367.99 274.41 1367.88 274.923 1367.69 275.53C1367.55 276.09 1367.32 276.79 1366.99 277.63L1363.7 287.36H1359.29ZM1474.66 277V230.8L1477.67 234.09H1463.6V228H1481.59V277H1474.66ZM1548.73 277.56C1544.9 277.56 1541.47 276.58 1538.44 274.62C1535.45 272.66 1533.07 269.813 1531.3 266.08C1529.57 262.347 1528.71 257.82 1528.71 252.5C1528.71 247.18 1529.57 242.653 1531.3 238.92C1533.07 235.187 1535.45 232.34 1538.44 230.38C1541.47 228.42 1544.9 227.44 1548.73 227.44C1552.51 227.44 1555.91 228.42 1558.95 230.38C1561.98 232.34 1564.36 235.187 1566.09 238.92C1567.81 242.653 1568.68 247.18 1568.68 252.5C1568.68 257.82 1567.81 262.347 1566.09 266.08C1564.36 269.813 1561.98 272.66 1558.95 274.62C1555.91 276.58 1552.51 277.56 1548.73 277.56ZM1548.73 271.33C1551.29 271.33 1553.53 270.63 1555.45 269.23C1557.41 267.83 1558.92 265.73 1560 262.93C1561.12 260.13 1561.68 256.653 1561.68 252.5C1561.68 248.347 1561.12 244.87 1560 242.07C1558.92 239.27 1557.41 237.17 1555.45 235.77C1553.53 234.37 1551.29 233.67 1548.73 233.67C1546.16 233.67 1543.9 234.37 1541.94 235.77C1539.98 237.17 1538.44 239.27 1537.32 242.07C1536.24 244.87 1535.71 248.347 1535.71 252.5C1535.71 256.653 1536.24 260.13 1537.32 262.93C1538.44 265.73 1539.98 267.83 1541.94 269.23C1543.9 270.63 1546.16 271.33 1548.73 271.33ZM1631.82 277.56C1627.99 277.56 1624.56 276.58 1621.53 274.62C1618.54 272.66 1616.16 269.813 1614.39 266.08C1612.66 262.347 1611.8 257.82 1611.8 252.5C1611.8 247.18 1612.66 242.653 1614.39 238.92C1616.16 235.187 1618.54 232.34 1621.53 230.38C1624.56 228.42 1627.99 227.44 1631.82 227.44C1635.6 227.44 1639 228.42 1642.04 230.38C1645.07 232.34 1647.45 235.187 1649.18 238.92C1650.9 242.653 1651.77 247.18 1651.77 252.5C1651.77 257.82 1650.9 262.347 1649.18 266.08C1647.45 269.813 1645.07 272.66 1642.04 274.62C1639 276.58 1635.6 277.56 1631.82 277.56ZM1631.82 271.33C1634.38 271.33 1636.62 270.63 1638.54 269.23C1640.5 267.83 1642.01 265.73 1643.09 262.93C1644.21 260.13 1644.77 256.653 1644.77 252.5C1644.77 248.347 1644.21 244.87 1643.09 242.07C1642.01 239.27 1640.5 237.17 1638.54 235.77C1636.62 234.37 1634.38 233.67 1631.82 233.67C1629.25 233.67 1626.99 234.37 1625.03 235.77C1623.07 237.17 1621.53 239.27 1620.41 242.07C1619.33 244.87 1618.8 248.347 1618.8 252.5C1618.8 256.653 1619.33 260.13 1620.41 262.93C1621.53 265.73 1623.07 267.83 1625.03 269.23C1626.99 270.63 1629.25 271.33 1631.82 271.33ZM1701.6 277L1735.06 228H1740.45L1706.99 277H1701.6ZM1705.52 254.32C1703.28 254.32 1701.3 253.76 1699.57 252.64C1697.85 251.52 1696.49 249.957 1695.51 247.95C1694.58 245.943 1694.11 243.61 1694.11 240.95C1694.11 238.29 1694.58 235.957 1695.51 233.95C1696.49 231.943 1697.85 230.38 1699.57 229.26C1701.3 228.14 1703.28 227.58 1705.52 227.58C1707.81 227.58 1709.79 228.14 1711.47 229.26C1713.2 230.38 1714.53 231.943 1715.46 233.95C1716.4 235.957 1716.86 238.29 1716.86 240.95C1716.86 243.61 1716.4 245.943 1715.46 247.95C1714.53 249.957 1713.2 251.52 1711.47 252.64C1709.79 253.76 1707.81 254.32 1705.52 254.32ZM1705.52 250.33C1707.67 250.33 1709.35 249.513 1710.56 247.88C1711.78 246.2 1712.38 243.89 1712.38 240.95C1712.38 238.01 1711.78 235.723 1710.56 234.09C1709.35 232.41 1707.67 231.57 1705.52 231.57C1703.42 231.57 1701.74 232.41 1700.48 234.09C1699.27 235.723 1698.66 238.01 1698.66 240.95C1698.66 243.843 1699.27 246.13 1700.48 247.81C1701.74 249.49 1703.42 250.33 1705.52 250.33ZM1736.53 277.42C1734.29 277.42 1732.31 276.86 1730.58 275.74C1728.86 274.62 1727.53 273.057 1726.59 271.05C1725.66 269.043 1725.19 266.71 1725.19 264.05C1725.19 261.39 1725.66 259.057 1726.59 257.05C1727.53 255.043 1728.86 253.48 1730.58 252.36C1732.31 251.24 1734.29 250.68 1736.53 250.68C1738.82 250.68 1740.8 251.24 1742.48 252.36C1744.21 253.48 1745.54 255.043 1746.47 257.05C1747.45 259.057 1747.94 261.39 1747.94 264.05C1747.94 266.71 1747.45 269.043 1746.47 271.05C1745.54 273.057 1744.21 274.62 1742.48 275.74C1740.8 276.86 1738.82 277.42 1736.53 277.42ZM1736.53 273.43C1738.63 273.43 1740.29 272.613 1741.5 270.98C1742.76 269.3 1743.39 266.99 1743.39 264.05C1743.39 261.157 1742.76 258.87 1741.5 257.19C1740.29 255.51 1738.63 254.67 1736.53 254.67C1734.43 254.67 1732.75 255.51 1731.49 257.19C1730.28 258.823 1729.67 261.11 1729.67 264.05C1729.67 266.99 1730.28 269.3 1731.49 270.98C1732.75 272.613 1734.43 273.43 1736.53 273.43ZM1842.05 277L1864.24 228H1871.17L1893.43 277H1886.08L1866.27 231.92H1869.07L1849.26 277H1842.05ZM1851.5 264.75L1853.39 259.15H1880.97L1883 264.75H1851.5ZM1956.41 277.56C1949.97 277.56 1944.91 275.717 1941.22 272.03C1937.54 268.343 1935.69 262.953 1935.69 255.86V228H1942.69V255.58C1942.69 261.04 1943.88 265.03 1946.26 267.55C1948.69 270.07 1952.1 271.33 1956.48 271.33C1960.92 271.33 1964.32 270.07 1966.7 267.55C1969.13 265.03 1970.34 261.04 1970.34 255.58V228H1977.13V255.86C1977.13 262.953 1975.29 268.343 1971.6 272.03C1967.96 275.717 1962.9 277.56 1956.41 277.56ZM2036.72 277V234.09H2019.92V228H2060.45V234.09H2043.65V277H2036.72ZM2125.91 277.56C2122.18 277.56 2118.7 276.93 2115.48 275.67C2112.31 274.41 2109.56 272.66 2107.22 270.42C2104.89 268.133 2103.07 265.473 2101.76 262.44C2100.46 259.407 2099.8 256.093 2099.8 252.5C2099.8 248.907 2100.46 245.593 2101.76 242.56C2103.07 239.527 2104.89 236.89 2107.22 234.65C2109.56 232.363 2112.31 230.59 2115.48 229.33C2118.66 228.07 2122.13 227.44 2125.91 227.44C2129.65 227.44 2133.08 228.07 2136.2 229.33C2139.38 230.543 2142.13 232.293 2144.46 234.58C2146.84 236.82 2148.66 239.457 2149.92 242.49C2151.23 245.523 2151.88 248.86 2151.88 252.5C2151.88 256.14 2151.23 259.477 2149.92 262.51C2148.66 265.543 2146.84 268.203 2144.46 270.49C2142.13 272.73 2139.38 274.48 2136.2 275.74C2133.08 276.953 2129.65 277.56 2125.91 277.56ZM2125.91 271.33C2128.62 271.33 2131.12 270.863 2133.4 269.93C2135.74 268.997 2137.74 267.69 2139.42 266.01C2141.15 264.283 2142.48 262.277 2143.41 259.99C2144.39 257.703 2144.88 255.207 2144.88 252.5C2144.88 249.793 2144.39 247.297 2143.41 245.01C2142.48 242.723 2141.15 240.74 2139.42 239.06C2137.74 237.333 2135.74 236.003 2133.4 235.07C2131.12 234.137 2128.62 233.67 2125.91 233.67C2123.16 233.67 2120.62 234.137 2118.28 235.07C2116 236.003 2113.99 237.333 2112.26 239.06C2110.54 240.74 2109.18 242.723 2108.2 245.01C2107.27 247.297 2106.8 249.793 2106.8 252.5C2106.8 255.207 2107.27 257.703 2108.2 259.99C2109.18 262.277 2110.54 264.283 2112.26 266.01C2113.99 267.69 2116 268.997 2118.28 269.93C2120.62 270.863 2123.16 271.33 2125.91 271.33ZM2198.98 277V228H2204.72L2226.7 265.03H2223.62L2245.32 228H2251.06L2251.13 277H2244.41L2244.34 238.57H2245.95L2226.63 271.05H2223.41L2203.95 238.57H2205.7V277H2198.98ZM2294.82 277L2317.01 228H2323.94L2346.2 277H2338.85L2319.04 231.92H2321.84L2302.03 277H2294.82ZM2304.27 264.75L2306.16 259.15H2333.74L2335.77 264.75H2304.27ZM2397.18 277V234.09H2380.38V228H2420.91V234.09H2404.11V277H2397.18ZM2464.93 277V228H2471.93V277H2464.93ZM2518.66 277V272.24L2551.63 231.36L2552.4 234.09H2519.15V228H2558.7V232.76L2525.87 273.64L2525.03 270.91H2559.61V277H2518.66ZM2597.99 277L2620.18 228H2627.11L2649.37 277H2642.02L2622.21 231.92H2625.01L2605.2 277H2597.99ZM2607.44 264.75L2609.33 259.15H2636.91L2638.94 264.75H2607.44ZM2693.08 277V228H2713.73C2718.95 228 2723.55 229.027 2727.52 231.08C2731.53 233.133 2734.63 236.003 2736.83 239.69C2739.07 243.377 2740.19 247.647 2740.19 252.5C2740.19 257.353 2739.07 261.623 2736.83 265.31C2734.63 268.997 2731.53 271.867 2727.52 273.92C2723.55 275.973 2718.95 277 2713.73 277H2693.08ZM2700.08 270.91H2713.31C2717.37 270.91 2720.87 270.14 2723.81 268.6C2726.79 267.06 2729.1 264.913 2730.74 262.16C2732.37 259.36 2733.19 256.14 2733.19 252.5C2733.19 248.813 2732.37 245.593 2730.74 242.84C2729.1 240.087 2726.79 237.94 2723.81 236.4C2720.87 234.86 2717.37 234.09 2713.31 234.09H2700.08V270.91ZM2809.43 277.56C2805.7 277.56 2802.22 276.93 2799 275.67C2795.83 274.41 2793.07 272.66 2790.74 270.42C2788.41 268.133 2786.59 265.473 2785.28 262.44C2783.97 259.407 2783.32 256.093 2783.32 252.5C2783.32 248.907 2783.97 245.593 2785.28 242.56C2786.59 239.527 2788.41 236.89 2790.74 234.65C2793.07 232.363 2795.83 230.59 2799 229.33C2802.17 228.07 2805.65 227.44 2809.43 227.44C2813.16 227.44 2816.59 228.07 2819.72 229.33C2822.89 230.543 2825.65 232.293 2827.98 234.58C2830.36 236.82 2832.18 239.457 2833.44 242.49C2834.75 245.523 2835.4 248.86 2835.4 252.5C2835.4 256.14 2834.75 259.477 2833.44 262.51C2832.18 265.543 2830.36 268.203 2827.98 270.49C2825.65 272.73 2822.89 274.48 2819.72 275.74C2816.59 276.953 2813.16 277.56 2809.43 277.56ZM2809.43 271.33C2812.14 271.33 2814.63 270.863 2816.92 269.93C2819.25 268.997 2821.26 267.69 2822.94 266.01C2824.67 264.283 2826 262.277 2826.93 259.99C2827.91 257.703 2828.4 255.207 2828.4 252.5C2828.4 249.793 2827.91 247.297 2826.93 245.01C2826 242.723 2824.67 240.74 2822.94 239.06C2821.26 237.333 2819.25 236.003 2816.92 235.07C2814.63 234.137 2812.14 233.67 2809.43 233.67C2806.68 233.67 2804.13 234.137 2801.8 235.07C2799.51 236.003 2797.51 237.333 2795.78 239.06C2794.05 240.74 2792.7 242.723 2791.72 245.01C2790.79 247.297 2790.32 249.793 2790.32 252.5C2790.32 255.207 2790.79 257.703 2791.72 259.99C2792.7 262.277 2794.05 264.283 2795.78 266.01C2797.51 267.69 2799.51 268.997 2801.8 269.93C2804.13 270.863 2806.68 271.33 2809.43 271.33Z" fill="white"/>
<defs>
<linearGradient id="paint0_linear_14_3" x1="0" y1="104.5" x2="2806" y2="104.5" gradientUnits="userSpaceOnUse">
<stop stop-color="#03CE95"/>
<stop offset="0.5" stop-color="#63FAD6"/>
<stop offset="1" stop-color="#03CE95"/>
</linearGradient>
</defs>
</svg>
