<svg width="1509" height="378" viewBox="0 0 1509 378" fill="none" xmlns="http://www.w3.org/2000/svg">
<g clip-path="url(#clip0_54_38)">
<mask id="mask0_54_38" style="mask-type:luminance" maskUnits="userSpaceOnUse" x="45" y="34" width="318" height="310">
<path d="M45 34H362.281V344H45V34Z" fill="white"/>
</mask>
<g mask="url(#mask0_54_38)">
<path d="M216.76 37.1463C222.755 39.4067 228.714 41.7557 234.641 44.1775L241.24 46.8234C245.828 48.6671 250.412 50.5213 254.995 52.3859C260.849 54.7661 266.719 57.115 272.594 59.4588C277.13 61.2713 281.662 63.0994 286.188 64.938C288.349 65.8078 290.516 66.6775 292.677 67.5369C295.708 68.7453 298.724 69.9796 301.74 71.214L306.938 73.3182C311.99 75.9744 315.245 78.8859 318.974 83.1828C319.724 86.24 319.724 86.24 319.495 89.1932L319.339 92.4796L319.068 95.8494C318.75 100.125 318.49 104.256 318.974 108.521C321 112.948 321 112.948 324.932 115.974C328.719 117.928 332.609 119.303 336.656 120.631C355.359 127.053 355.359 127.053 360.667 132.365C360.995 136.058 361.135 139.584 361.146 143.282L361.193 146.688C361.234 150.417 361.255 154.146 361.271 157.875L361.323 165.641C361.354 171.073 361.375 176.5 361.385 181.933C361.396 188.891 361.469 195.849 361.552 202.808C361.609 208.157 361.625 213.5 361.63 218.849C361.641 221.417 361.662 223.985 361.703 226.547C361.755 230.141 361.75 233.724 361.729 237.313L361.813 240.532C361.76 243.506 361.76 243.506 360.667 248.615C355.641 252.797 350.469 255.381 344.396 257.714L340.432 259.266L336.38 260.818C333.682 261.86 330.99 262.907 328.302 263.959L324.714 265.334C321.984 266.287 321.984 266.287 320.464 267.99C320.313 270.032 320.224 272.073 320.203 274.12L320.094 277.896C320.031 280.527 319.984 283.157 319.953 285.792L319.828 289.584L319.766 293.058C318.974 296.308 318.974 296.308 316.578 299.214C312.271 302.912 308.208 304.657 302.943 306.777L299.912 308.016C296.615 309.355 293.313 310.667 290.005 311.98C287.703 312.907 285.401 313.834 283.094 314.761C278.271 316.698 273.443 318.631 268.615 320.547C262.438 323.011 256.271 325.49 250.109 327.985C245.354 329.907 240.594 331.813 235.833 333.709C233.557 334.62 231.287 335.532 229.016 336.454C225.833 337.745 222.641 339.006 219.448 340.266L213.964 342.454C208.458 344.099 204.083 344.36 198.37 344C194.354 342.896 194.354 342.896 190.432 341.303L185.802 339.459L180.781 337.386L172.651 334.105C169.609 332.875 166.573 331.636 163.537 330.396C157.203 327.818 150.859 325.266 144.505 322.74C138.813 320.464 133.115 318.183 127.427 315.896C124.599 314.766 121.771 313.631 118.943 312.506C114.938 310.902 110.938 309.287 106.938 307.672L103.287 306.219C91.8334 301.563 91.8334 301.563 88.1876 297.797C87.422 294.761 87.422 294.761 87.3803 291.323C87.349 290.084 87.3126 288.839 87.2761 287.558L87.2553 283.641C87.2188 281.079 87.1667 278.516 87.1042 275.954L87.0782 272.516C86.8699 269.016 86.8699 269.016 83.7188 265.011C80.2292 263.256 80.2292 263.256 76.0938 261.849L71.5001 260.141C68.3022 258.98 65.099 257.823 61.8959 256.672L57.297 254.959L53.0782 253.433C49.474 251.599 49.474 251.599 47.0522 249.198C44.7761 245.24 44.4532 242.204 44.3855 237.678L44.4063 234.521L44.3751 231.152C44.3438 227.485 44.3542 223.823 44.3595 220.157L44.3386 212.511C44.323 207.167 44.3282 201.823 44.3438 196.485C44.3595 189.636 44.3282 182.792 44.2865 175.943C44.2605 170.678 44.2605 165.417 44.2657 160.152C44.2657 157.625 44.2605 155.099 44.2397 152.579C44.2188 149.047 44.2345 145.521 44.2605 141.995L44.2136 138.834C44.2605 135.907 44.2605 135.907 45.0053 130.875C47.9636 127.12 50.1667 125.303 54.4376 123.214L58.2292 121.881L62.3803 120.37L66.6876 118.86C69.5209 117.86 72.3438 116.849 75.1615 115.829L78.948 114.5C82.4115 112.912 84.3647 111.521 86.698 108.521C87.0678 104.047 87.0678 104.047 86.698 99.1098C86.573 93.2713 86.6095 89.4171 88.4636 83.8338C92.3074 78.6671 96.6407 75.214 102.412 72.3546C103.771 71.8182 105.13 71.2817 106.531 70.7244L111.292 68.8182L116.474 66.7869L122 64.5994C129.109 61.7765 136.234 58.99 143.354 56.2088C154.177 51.9796 164.974 47.7453 175.63 43.115L180.089 41.1984C182.75 40.0421 185.401 38.865 188.042 37.6567L191.625 36.1098L194.62 34.7557C202.49 33.1723 209.276 34.6671 216.76 37.1463ZM188.974 50.7192L186.271 51.7817C183.344 52.938 180.427 54.1203 177.51 55.3025L171.385 57.7557C167.115 59.4692 162.844 61.1932 158.583 62.9223C153.125 65.1359 147.662 67.3234 142.188 69.49C137.969 71.1671 133.76 72.865 129.552 74.5682C127.537 75.3807 125.526 76.188 123.505 76.9848C120.682 78.1098 117.87 79.2505 115.063 80.4067L110.214 82.365C105.458 85.0057 103.068 87.5942 100.099 92.1255C99.2293 96.7244 99.2293 96.7244 100.099 101.068C102.281 103.558 102.281 103.558 104.563 105.537L107.063 104.527C116.505 100.704 125.958 96.9171 135.432 93.1619C139.984 91.3546 144.537 89.5369 149.083 87.714C155.578 85.1098 162.083 82.5369 168.594 79.9744C171.188 78.9484 173.781 77.9171 176.375 76.8755C180.057 75.3963 183.75 73.938 187.448 72.5005L190.776 71.1359C195.922 69.1619 199.469 68.2661 205.052 68.4536C211.302 70.0265 217.031 72.1984 222.953 74.714L226.578 76.214C229.115 77.2713 231.656 78.3286 234.188 79.3963C238.125 81.0473 242.068 82.688 246.01 84.3182C255.302 88.1671 264.589 92.0265 273.859 95.9328C278.037 97.6932 282.219 99.4276 286.406 101.162L289.833 102.641C294.427 104.532 297.599 105.594 302.583 105.068L305.573 104.047C305.901 101.73 306.13 99.3963 306.318 97.063L306.74 93.1359L305.573 89.1463C297.245 82.1932 286.599 78.5109 276.635 74.5994L271.76 72.6619C266.662 70.6307 261.547 68.615 256.438 66.6046L246.146 62.5109C234.609 57.9223 234.609 57.9223 223.052 53.3911C220.635 52.4432 218.224 51.4744 215.823 50.4796C205.745 46.3911 198.995 46.7192 188.974 50.714M190.906 83.4328L185.412 85.5786L179.479 87.9328C176.391 89.1515 173.307 90.3703 170.219 91.589C168.063 92.438 165.906 93.2921 163.75 94.1463C156.969 96.8234 150.156 99.4328 143.323 101.985C138.807 103.672 134.302 105.381 129.802 107.099C127.625 107.917 125.448 108.73 123.271 109.527C120.214 110.652 117.167 111.803 114.125 112.98L108.849 114.954C104.354 117.146 104.354 117.146 102.099 121.313C99.7553 127.277 99.4688 132.49 99.5209 138.792L99.4949 142.459C99.4793 146.438 99.4897 150.417 99.5053 154.402C99.5001 157.178 99.4949 159.954 99.4897 162.73C99.4845 168.537 99.4949 174.349 99.5157 180.157C99.5417 187.599 99.5261 195.037 99.5001 202.474C99.4845 208.209 99.4897 213.938 99.5001 219.667C99.5053 222.407 99.5001 225.152 99.4897 227.896C99.4793 231.73 99.4949 235.563 99.5209 239.402L99.4897 242.823C99.5522 247.849 100 251.396 102.188 255.954C106.589 261.678 112.953 263.719 119.453 266.5C126.703 269.474 134 272.292 141.323 275.068C145.427 276.636 149.531 278.198 153.63 279.766L156.714 280.943C163.12 283.402 169.49 285.948 175.823 288.579L180.49 290.495C183.328 291.662 186.156 292.855 188.979 294.068L192.828 295.636L196.094 297.021C202.896 298.428 208.958 297.214 215.458 295.12C219.651 293.563 223.797 291.912 227.938 290.23L232.568 288.386C237.427 286.443 242.281 284.485 247.135 282.521C250.37 281.224 253.609 279.933 256.844 278.641C267.917 274.209 267.917 274.209 278.969 269.719C282.005 268.49 285.052 267.292 288.115 266.115L292.953 264.209L297.359 262.506C301.12 260.73 301.12 260.73 303.813 258.105C306.417 252.896 306.219 247.813 306.198 242.115L306.24 238.318C306.271 234.172 306.276 230.032 306.271 225.891L306.307 217.25C306.328 211.214 306.333 205.178 306.323 199.136C306.313 191.402 306.359 183.667 306.417 175.933C306.458 169.985 306.464 164.037 306.453 158.084C306.458 155.235 306.474 152.381 306.5 149.532C306.531 145.542 306.516 141.558 306.49 137.568L306.552 134C306.573 130.261 306.573 130.261 305.573 124.912C301.031 119.183 296.604 116.334 289.839 113.589L286.662 112.365L283.287 111.016C279.677 109.579 276.068 108.157 272.448 106.75C269.958 105.761 267.469 104.777 264.984 103.787C260.016 101.808 255.042 99.8442 250.063 97.8859C243.802 95.4119 237.557 92.8911 231.328 90.3338L226.156 88.2192C223.031 86.9432 219.906 85.6567 216.781 84.365L212.604 82.6775L209.031 81.214C202.162 79.0525 197.313 80.9119 190.906 83.4328ZM103.078 272.464L100.099 276.933C100.078 283.105 100.078 283.105 101.589 288.855C106.662 293.428 111.568 296.224 117.865 298.803L123.151 300.985L128.828 303.277L134.714 305.667C138.813 307.334 142.917 308.985 147.026 310.631C152.266 312.735 157.49 314.875 162.708 317.027C166.75 318.683 170.802 320.318 174.859 321.938C176.787 322.719 178.714 323.506 180.635 324.303C192.802 329.532 192.802 329.532 205.787 330.521C211.068 329.485 215.964 327.813 220.901 325.667L225.964 323.516L231.313 321.178C235.125 319.547 238.943 317.922 242.76 316.308L245.74 315.042C253.063 311.948 260.448 309.063 267.885 306.261L271.083 305.047C275.219 303.48 279.359 301.933 283.51 300.402C286.375 299.344 289.234 298.277 292.094 297.193L297.047 295.36C301.208 293.579 301.208 293.579 303.875 290.308C305.766 287.464 305.766 287.464 306.01 284.178L305.854 281.032L305.573 275.443C301.505 274.334 298.755 273.803 294.62 274.808L290.958 276.287L286.771 277.948L282.292 279.792L277.625 281.662C272.698 283.636 267.776 285.641 262.859 287.646L253.01 291.61C246.932 294.053 240.859 296.506 234.792 298.969L230.682 300.631C227.979 301.735 225.287 302.849 222.599 303.985C214.37 307.417 207.849 309.365 198.854 309.027C188.568 307.375 179.266 302.917 169.802 298.73C167.573 297.777 165.349 296.823 163.125 295.875C158.646 293.969 154.172 292.053 149.708 290.12C140.432 286.125 131.068 282.355 121.688 278.61L116.984 276.704L112.708 274.99L109.005 273.5C106.109 272.297 106.109 272.297 103.078 272.464Z" fill="white"/>
</g>
<mask id="mask1_54_38" style="mask-type:luminance" maskUnits="userSpaceOnUse" x="108" y="133" width="1352" height="170">
<path d="M108 133H1459.05V302.333H108V133Z" fill="white"/>
</mask>
<g mask="url(#mask1_54_38)">
<path d="M113.5 134.35C136.188 134.313 158.875 134.287 181.563 134.271C192.099 134.261 202.63 134.251 213.167 134.235C223.318 134.219 233.474 134.209 243.635 134.204C247.521 134.204 251.401 134.199 255.287 134.193C260.708 134.183 266.125 134.178 271.547 134.178L276.469 134.162L280.917 134.167L284.802 134.162L287.708 134.35L289.198 135.839C289.344 138.256 289.391 140.683 289.396 143.105L289.401 147.553L289.38 152.23L289.401 156.912L289.396 161.36L289.391 165.469L289.198 168.626L287.708 170.115C285.469 170.251 283.224 170.313 280.984 170.308L276.578 170.318L271.708 170.308L266.609 170.318C261.016 170.324 255.422 170.318 249.833 170.313L238.234 170.318C230.115 170.324 222 170.318 213.885 170.308C204.49 170.303 195.094 170.303 185.698 170.313C176.672 170.318 167.651 170.324 158.625 170.318C154.781 170.318 150.932 170.318 147.089 170.318C141.719 170.324 136.354 170.318 130.99 170.308L126.12 170.318L121.714 170.308L117.865 170.303L114.99 170.115L113.5 168.626C113.38 166.079 113.328 163.532 113.354 160.98L113.37 156.308L113.406 151.391L113.427 146.459C113.443 142.423 113.469 138.386 113.5 134.35ZM490.208 144.782C497.891 149.157 503.505 154.266 507.984 161.917C512.458 171.079 514.755 179.657 514.49 189.87C513.453 199.084 510.839 207.761 505.62 215.475C501.135 220.818 496.63 225.303 490.208 228.24H487.229C488.896 230.662 488.896 230.662 491.698 232.714C496.036 233.459 496.036 233.459 500.63 232.714C504.823 230.641 504.823 230.641 508.073 228.24C509.615 229.839 511.135 231.454 512.635 233.084L515.198 235.808L517.01 238.673C516.802 241.803 516.802 241.803 515.521 244.636C511.109 247.995 507.375 250.334 502.12 252.089C494.391 252.938 487.484 252.657 480.25 249.667C472.089 245.6 465.484 240.308 460.427 232.714C456.797 231.141 456.797 231.141 452.609 229.917C445.38 227.391 440.443 225.001 435.115 219.298C429.547 211.646 425.083 203.881 423.479 194.475C422.62 183.537 424.203 173.235 428.635 163.193C432.25 156.891 436.802 152.152 442.557 147.761C458.01 138.87 473.641 138.235 490.208 144.782ZM455.958 165.646C451.849 169.683 448.87 173.521 447.026 179.058C446.214 186.568 446.286 193.49 449.354 200.485C451.672 204.521 454 207.089 457.917 209.61C463.896 212.048 467.448 212.662 473.828 211.85C479.26 209.818 482.266 207.917 486.208 203.652C488.99 199.521 490.099 196.464 490.615 191.521C490.818 185.36 490.984 179.766 488.911 173.902C486.531 169.709 484.229 166.631 480.208 163.928C476.417 162.126 472.661 161.219 468.521 160.615C463.536 161.381 460.25 162.964 455.958 165.646ZM706.104 143.287H725.464C730.354 147.584 732.953 150.412 736.354 155.678L738.797 159.141C741.349 162.766 743.828 166.443 746.307 170.115L758.219 186.511L759.708 143.287H782.042V231.225H764.177C759.573 227.162 757.073 224.251 753.755 219.298C751.526 216.344 749.297 213.396 747.052 210.449C746.026 209.053 744.995 207.657 743.938 206.219C739.38 200.058 734.646 194.037 729.932 188.001L729.818 191.808C729.677 196.454 729.531 201.1 729.375 205.751C729.313 207.761 729.25 209.777 729.193 211.792C729.104 214.678 729.01 217.568 728.911 220.459L728.75 225.735L728.443 229.73L726.953 231.225H706.104V143.287ZM525.943 141.798C529.417 141.652 532.891 141.605 536.365 141.615L542.135 141.6L546.786 141.798L548.276 143.287C548.479 147.391 548.589 151.459 548.641 155.563L548.792 163.188C548.865 167.209 548.927 171.225 548.984 175.245C549.047 179.12 549.12 182.99 549.203 186.86L549.24 190.485C549.375 196.714 549.729 201.756 552.745 207.376C555.406 209.495 555.406 209.495 558.698 210.355C562.073 210.673 562.073 210.673 565.495 210.266L568.943 210.027L572.099 208.865C574.734 205.839 574.734 205.839 576.568 201.412C577.234 196.954 577.26 192.532 577.276 188.027C577.38 182.678 577.453 177.329 577.495 171.98C577.552 167.896 577.615 163.818 577.682 159.735C577.719 157.204 577.75 154.667 577.776 152.131C577.813 149.183 577.927 146.235 578.057 143.287L579.547 141.798C583.047 141.688 586.557 141.673 590.063 141.709L595.885 141.745L600.391 141.798C600.537 150.438 600.646 159.084 600.719 167.725C600.75 170.662 600.786 173.594 600.839 176.527C600.911 180.766 600.948 185.006 600.974 189.245L601.063 193.162C601.068 202.766 599.021 210.818 594.432 219.298C589.667 224.969 584.495 228.386 577.594 231.037C568.672 233.558 560.557 233.771 551.505 231.787C544.333 229.579 538.698 226.907 533.385 221.537C527.771 213.923 525.912 206.214 524.453 196.943C523.849 188.891 523.932 180.824 524.036 172.751C524.078 169.042 524.094 165.329 524.104 161.62C524.12 159.261 524.135 156.902 524.151 154.542L524.172 151.178C524.208 148.548 524.323 145.917 524.453 143.287L525.943 141.798ZM640.594 143.287C644.609 143.183 648.583 143.152 652.599 143.199L656.021 143.214C658.818 143.235 661.62 143.261 664.417 143.287L678.24 177.454C681.563 185.673 684.885 193.891 688.203 202.115C689.646 205.683 691.094 209.251 692.547 212.813L695.021 218.923L697.172 224.209C698.661 228.24 698.661 228.24 698.661 231.225H674.839C668.88 216.693 668.88 216.693 668.88 213.339H634.635L630.172 228.24L628.682 231.225H604.859C611.339 213.662 618.167 196.266 625.198 178.917C626.938 174.61 628.677 170.303 630.411 165.995L633.734 157.782L635.307 153.881L636.75 150.318L638.026 147.173C639.104 144.782 639.104 144.782 640.594 143.287ZM651.016 168.626C649.516 172.256 648.031 175.886 646.547 179.527L645.255 182.641C643.438 187.131 642.083 190.563 642.083 195.454H661.438C660.167 189.084 658.495 183.85 656.135 177.85L654.078 172.605L652.505 168.626H651.016ZM926.193 144.876C928.287 145.808 930.37 146.761 932.427 147.761C931.797 150.157 931.141 152.542 930.474 154.933L929.375 158.969C927.932 162.74 926.547 164.558 923.495 167.136L919.958 164.995C913.193 162.074 907.026 161.126 899.672 161.173C895.214 162.329 895.214 162.329 892.229 164.157V171.605C899.417 174.428 906.563 176.777 914.005 178.87C919.604 180.574 924.391 182.079 928.99 185.766C932.115 189.146 933.724 191.261 935.406 195.454C936.271 202.881 936.099 209.771 933.734 216.876C929.599 222.667 925.391 226.563 919.073 229.699C909.787 233.303 900.589 233.829 890.74 232.714C882.271 230.725 874.193 228.626 866.917 223.771C867.797 216.548 869.865 210.943 872.87 204.396C874.24 204.933 875.604 205.469 877.01 206.027C890.917 211.443 890.917 211.443 905.63 211.85C909.208 210.563 909.208 210.563 911.583 208.865L910.094 201.412L907.344 200.553C903.198 199.24 899.063 197.907 894.927 196.568L890.594 195.214C883.182 192.803 876.943 190.745 871.38 185.021C868.953 181.261 867.787 177.48 866.917 173.1C866.719 168.396 867.167 164.225 868.406 159.683C871.839 153.173 875.745 148.923 881.802 144.782C895.604 138.053 912.224 139.266 926.193 144.876ZM790.979 143.287H863.938V162.662H838.625V231.225H816.292V162.662H790.979V143.287ZM1137.91 144.782C1178.11 144.782 1178.11 144.782 1190.02 149.251C1194.56 152.178 1197.08 154.636 1200.07 159.126C1202.97 166.959 1204.13 174.37 1202.88 182.688C1201.53 187.615 1199.96 191.313 1196.59 195.193C1191.88 199.443 1187.26 202.693 1181.09 204.396C1173.33 205.73 1165.93 206.074 1158.1 205.98L1146.84 205.886V232.714H1137.91V144.782ZM1146.84 153.725V196.943L1160.98 197.318L1165.37 197.48C1173.44 197.584 1179.13 196.475 1186.19 192.516C1188.71 190.938 1188.71 190.938 1191.42 188.464C1193.94 182.964 1194.65 177.646 1194.49 171.605C1193.05 165.896 1193.05 165.896 1190.02 161.173C1186.65 158.042 1183.69 155.771 1179.6 153.725C1177.11 153.605 1174.63 153.553 1172.14 153.579L1168.13 153.589L1163.03 153.631L1146.84 153.725ZM1346.36 144.782H1356.79L1378.47 194.225C1381.23 200.521 1383.99 206.818 1386.79 213.105L1388.27 216.459C1389.18 218.516 1390.1 220.568 1391.02 222.62C1394.01 229.396 1394.01 229.396 1394.01 232.714H1385.07C1383.9 230.386 1382.71 228.058 1381.54 225.73L1379.55 221.798C1377.75 218.058 1376.19 214.209 1374.65 210.355H1328.49L1319.56 231.225L1318.07 232.714C1315.09 232.771 1312.11 232.777 1309.14 232.714C1316.67 213.141 1324.93 193.943 1333.6 174.855C1338.11 164.917 1342.44 154.964 1346.36 144.782ZM1350.83 155.214C1348.07 161.553 1345.31 167.891 1342.56 174.235C1341.62 176.391 1340.68 178.553 1339.74 180.709C1338.4 183.803 1337.05 186.902 1335.71 190.001L1334.42 192.938C1332.35 197.032 1332.35 197.032 1331.47 201.412H1371.67C1362.52 178.089 1362.52 178.089 1352.32 155.214H1350.83ZM1076.86 144.782C1081.51 144.501 1081.51 144.501 1085.79 144.782C1092.78 160.594 1099.75 176.417 1106.71 192.24C1108.02 195.214 1109.33 198.193 1110.65 201.167C1112.76 205.969 1114.86 210.771 1116.97 215.574L1118.85 219.85L1120.55 223.725L1122.01 227.053C1123.02 229.73 1123.02 229.73 1123.02 232.714H1114.08C1112.9 230.386 1111.72 228.058 1110.55 225.73L1108.56 221.798C1106.76 218.058 1105.2 214.209 1103.66 210.355H1057.51L1048.57 231.225L1047.08 232.714C1044.1 232.771 1041.13 232.777 1038.15 232.714C1045.22 215.344 1052.51 198.063 1060.01 180.876C1061.72 176.943 1063.43 173.006 1065.13 169.068L1068.42 161.511L1069.95 157.969L1071.39 154.693L1072.63 151.824C1073.88 149.251 1073.88 149.251 1076.86 144.782ZM1079.84 155.214C1077.08 161.553 1074.32 167.891 1071.57 174.235C1070.63 176.391 1069.69 178.553 1068.75 180.709C1067.4 183.803 1066.06 186.902 1064.71 190.001L1063.43 192.938C1061.36 197.032 1061.36 197.032 1060.48 201.412H1100.68C1091.53 178.089 1091.53 178.089 1081.33 155.214H1079.84ZM1026.33 149.063C1030.22 151.886 1032.69 154.11 1035.17 158.193L1030.7 162.662C1027.38 161.074 1024.15 159.303 1021.02 157.355C1015.85 154.381 1011.13 153.464 1005.2 153.256C997.037 153.376 990.141 155.673 983.052 159.683C977.969 163.902 974.261 169.657 971.906 175.824C970.13 183.355 970.172 190.787 971.141 198.433C973.521 205.761 976.755 211.454 982.125 216.969C989.88 221.594 995.5 224.058 1004.55 224.423C1012.58 224.214 1017.99 221.938 1024.74 217.808C1026.72 216.798 1028.71 215.803 1030.7 214.829L1033.68 217.808C1033.4 220.73 1033.4 220.73 1032.19 223.771C1026.88 228.423 1022.27 231.454 1015.44 233.271C1007.47 234.667 999.891 234.438 991.99 232.714C984.714 230.032 978.729 226.641 972.818 221.631C967.12 214.751 963.125 208.563 960.719 199.923C959.781 189.99 959.24 179.6 963.047 170.209C967.469 162.021 972.859 154.98 980.719 149.886C995.261 142.167 1011.43 141.053 1026.33 149.063ZM1407.41 144.782H1417.83V225.261H1463.99V232.714H1407.41V144.782ZM1245.11 144.782H1312.11V152.23H1283.82V232.714H1274.89L1273.4 153.725L1245.11 152.23V144.782ZM1221.29 144.782H1230.22V232.714H1221.29V144.782ZM901.162 264.011H908.604L916.052 281.896C918.599 278.074 920.375 274.62 922.193 270.438L923.787 266.787L924.984 264.011L932.427 265.501V299.782L926.474 301.271L924.984 278.912L919.031 290.839L913.073 289.35C910.469 284.037 910.469 284.037 908.604 278.912L907.115 301.271H901.162V264.011ZM1179.6 264.011H1187.04L1194.49 281.896C1197.03 278.074 1198.81 274.62 1200.63 270.438L1202.22 266.787L1203.42 264.011L1210.86 265.501V299.782L1204.91 301.271L1203.42 278.912L1197.46 290.839L1191.51 289.35C1188.91 284.037 1188.91 284.037 1187.04 278.912L1185.55 301.271H1179.6V264.011ZM1273.4 264.011L1280.85 265.501C1283.06 267.86 1283.06 267.86 1284.83 270.865L1286.8 274.11L1288.76 277.516C1289.43 278.652 1290.11 279.777 1290.81 280.943C1292.47 283.735 1294.11 286.537 1295.74 289.35L1297.22 264.011L1303.18 265.501V299.782L1295.74 301.271L1279.36 274.443V299.782L1273.4 301.271V264.011ZM994.964 264.011L1002.41 265.501C1004.63 267.86 1004.63 267.86 1006.4 270.865L1008.36 274.11L1010.32 277.516C1011 278.652 1011.68 279.777 1012.37 280.943C1014.03 283.735 1015.68 286.537 1017.3 289.35L1018.79 264.011L1024.74 265.501V299.782L1017.3 301.271L1000.92 274.443V299.782L994.964 301.271V264.011ZM625.703 264.011C633.307 263.339 640.198 263.391 647.479 265.782L651.016 268.48C652.505 272.115 652.505 272.115 652.505 275.933C651.109 279.381 651.109 279.381 649.526 281.896L651.667 283.855C653.995 286.365 653.995 286.365 655.484 290.839C653.807 294.657 653.807 294.657 651.016 298.287C645.328 301.204 640.609 301.636 634.266 301.553L629.495 301.521L625.703 301.271L624.214 299.782C624.063 297.251 624.021 294.719 624.016 292.188L624.01 287.537L624.026 282.641L624.01 277.745L624.016 273.094L624.021 268.792L624.214 265.501L625.703 264.011ZM630.172 268.48C630.109 271.959 630.109 275.438 630.172 278.912L631.656 280.407C633.932 280.266 636.193 280.048 638.453 279.756L642.177 279.292L645.057 278.912C646.073 275.344 646.073 275.344 646.547 271.464L643.568 268.48C640.281 268.12 640.281 268.12 636.682 268.298L632.995 268.376L630.172 268.48ZM630.172 283.386V296.798C632.557 296.923 634.948 297.006 637.333 297.079L641.365 297.235L645.057 296.798C647.844 294.902 647.844 294.902 649.526 292.329C649.641 289.183 649.641 289.183 648.036 286.365C645.693 284.256 645.693 284.256 642.083 283.386C638.073 283.157 634.188 283.251 630.172 283.386ZM531.896 264.011C549.766 264.011 549.766 264.011 555.161 264.943L558.698 266.99C561.026 271.183 561.026 271.183 561.677 275.933C559.911 280.032 559.911 280.032 557.208 283.386L552.745 286.365L554.698 288.87L557.208 292.141L559.724 295.391L561.677 298.287V301.271C558.422 301.178 558.422 301.178 554.234 299.782C551.271 296.594 548.859 293.173 546.786 289.35V286.365H537.854V301.271H531.896V264.011ZM537.854 268.48V281.896C543.828 282.193 543.828 282.193 549.766 281.896C553.427 279.902 553.427 279.902 555.719 277.423C555.208 273.74 555.208 273.74 554.234 269.975C549.125 267.417 543.484 268.402 537.854 268.48ZM816.292 264.011C820.755 263.454 820.755 263.454 825.224 264.011L829.693 266.99C829.318 271.834 829.318 271.834 828.203 277.423C825.13 281.058 825.13 281.058 822.245 283.386C824.677 285.433 827.162 287.423 829.693 289.35H832.667L835.646 281.896L841.604 283.386L835.646 295.308L841.604 296.798V301.271L832.589 299.959L829.693 299.782L826.714 301.271C820.667 301.881 815.156 302.037 809.5 299.688C807.354 296.798 807.354 296.798 806.609 291.678L807.354 286.365L810.427 283.386L813.313 280.407C812.875 276.917 812.38 273.443 811.823 269.975C813.406 266.339 813.406 266.339 816.292 264.011ZM819.266 266.99L816.292 269.975C816.766 273.85 816.766 273.85 817.781 277.423L823.734 275.933L825.224 268.48C822.406 267.469 822.406 267.469 819.266 266.99ZM814.802 284.876L811.823 289.35C811.953 292.464 811.953 292.464 813.313 295.308L817.781 298.287C822.458 297.818 822.458 297.818 826.714 296.798C824.568 291.787 821.875 288.464 817.781 284.876H814.802ZM689.729 264.011C693.823 265.688 693.823 265.688 697.172 268.48C700.391 273.37 701.573 276.813 702.198 282.641C701.578 288.423 700.286 291.902 697.172 296.798C694.755 299.594 694.755 299.594 691.219 301.271C686.589 302.053 682.438 302.146 677.818 301.271C672.979 297.766 670.885 294.896 668.323 289.532C667.208 283.938 667.573 279.99 668.88 274.443C670.807 270.313 672.318 267.766 675.953 265.037C680.771 263.563 684.719 263.574 689.729 264.011ZM677.354 270.719C674.563 274.85 673.599 278.365 673.182 283.334C673.443 288.048 675.328 291.381 677.818 295.308L679.307 296.798C684.391 297.298 684.391 297.298 689.729 296.798C692.615 295.027 692.615 295.027 694.193 292.329C695.969 287.001 696.073 283.027 695.682 277.423C693.964 273.975 692.448 271.204 689.729 268.48C684.573 267.907 681.755 267.855 677.354 270.719ZM597.411 264.011C601.505 265.501 601.505 265.501 604.859 268.48C607.266 272.329 608.573 275.928 609.323 280.407C609.135 285.256 608.193 289.339 606.344 293.818C603.276 298.386 603.276 298.386 598.901 301.271C594.24 302.219 590.167 302.183 585.5 301.271C581.125 298.756 581.125 298.756 578.057 295.308C575.578 290.938 575.068 287.761 574.615 282.735C575.13 276.808 576.281 273.438 579.547 268.48C585.318 263.667 590.031 263.219 597.411 264.011ZM586.99 268.48C583.146 271.24 583.146 271.24 581.031 275.933C580.214 280.574 580.219 284.709 581.031 289.35C583.042 294.068 583.042 294.068 586.99 296.798C592.266 297.917 592.266 297.917 597.411 296.798C600.49 294.683 600.49 294.683 601.88 290.839C602.859 286.475 603.526 283.282 603.37 278.912C601.646 273.844 601.646 273.844 598.901 269.975C595.828 268.23 595.828 268.23 591.641 267.923L586.99 268.48ZM1111.1 264.011C1114.83 265.501 1114.83 265.501 1117.06 266.99L1115.57 271.464L1111.1 269.975C1107.09 269.553 1103.2 269.485 1099.19 269.975C1095.95 272.271 1095 273.902 1093.24 277.423C1092.96 282.485 1092.78 286.61 1094.54 291.396C1096.09 294.058 1096.09 294.058 1099.19 295.308C1101.24 295.412 1103.29 295.433 1105.33 295.402L1111.1 295.308L1112.59 286.365H1105.15L1103.66 281.896C1105.86 281.855 1108.07 281.824 1110.27 281.803L1113.98 281.751L1117.06 281.896L1118.55 283.386C1118.91 286.308 1118.91 286.308 1119.02 289.907L1119.18 293.48L1118.55 296.798C1115.99 299.428 1115.99 299.428 1112.59 301.271C1107.55 302.193 1102.77 301.99 1097.7 301.271C1092.49 298.756 1092.49 298.756 1088.77 295.308C1086.18 290.949 1085.79 287.803 1085.33 282.735C1085.85 276.761 1086.89 273.433 1090.26 268.48C1097.28 263.579 1102.84 263.344 1111.1 264.011ZM1228.73 264.011H1255.54V268.48H1234.69V280.407H1252.56V283.386H1234.69V296.798H1257.03V301.271H1228.73V264.011ZM1136.42 264.011H1163.22V268.48H1142.38V280.407H1160.24V283.386H1142.38V296.798H1163.22V301.271H1136.42V264.011ZM1053.04 264.011C1056.63 264.183 1056.63 264.183 1060.48 265.501C1062.56 268.818 1062.56 268.818 1064.14 273.146L1065.9 277.818L1067.65 282.735L1069.48 287.667C1070.97 291.693 1072.44 295.735 1073.88 299.782L1067.93 301.271L1063.46 290.839H1048.57L1044.1 301.271H1038.15C1040.85 292.683 1043.94 284.298 1047.27 275.933L1048.46 272.902C1051.36 265.688 1051.36 265.688 1053.04 264.011ZM1054.53 269.975C1053.77 271.865 1053.03 273.756 1052.29 275.657L1051.04 278.85C1049.83 282.074 1049.83 282.074 1050.06 286.365H1061.97C1061.3 283.912 1060.61 281.459 1059.92 279.011L1058.77 274.87L1057.51 271.464L1054.53 269.975ZM960.719 264.011H966.677C968.922 269.376 971.151 274.751 973.375 280.126L975.313 284.751L977.146 289.193L978.849 293.282C980.078 296.798 980.078 296.798 980.078 301.271L974.12 299.782L971.141 289.35L956.255 290.839L951.787 301.271H945.828C949.099 288.824 953.818 277.157 959.229 265.501L960.719 264.011ZM962.208 268.48C961.453 270.339 960.708 272.204 959.974 274.068L958.719 277.214C957.453 280.798 957.453 280.798 957.74 286.365H969.656L963.698 268.48H962.208ZM1318.07 264.011H1350.83L1352.32 268.48H1337.43V301.271H1331.47V268.48H1316.58L1318.07 264.011ZM713.552 264.011H747.797V268.48H734.396V299.782L728.443 301.271V268.48H713.552V264.011Z" fill="white"/>
</g>
</g>
<defs>
<clipPath id="clip0_54_38">
<rect width="1509" height="378" fill="white"/>
</clipPath>
</defs>
</svg>
